<svg width="101" height="100" viewBox="0 0 101 100" fill="none" xmlns="http://www.w3.org/2000/svg">
<path d="M85.3833 100C73.1826 99.958 61.1179 97.4356 49.9224 92.5859C31.3599 84.4609 16.8364 70.3984 6.74267 50.7812C1.52392 40.625 -1.35108 22.9922 0.633299 18.6719C1.47705 16.8281 2.62549 15.8906 4.03955 15.8828C7.02392 15.8828 9.28174 20.1328 12.1411 26.1406C12.688 27.2891 13.3364 28.6562 13.7505 29.3516C14.6411 28.6641 16.0474 25.3125 17.0005 23.0312C20.6255 14.4141 26.6646 0 43.4458 0C52.8208 0 58.2895 10.2109 62.7192 18.4141C65.7817 24.1172 68.6802 29.5078 71.3599 28.6719C75.1802 27.4844 79.8989 23.3672 84.063 19.7344C89.6489 14.8438 94.0552 11.0078 97.6567 11.9844C98.1002 12.0931 98.513 12.3017 98.8636 12.5941C99.2143 12.8865 99.4936 13.2552 99.6802 13.6719C100.797 16.1563 98.977 20.0781 95.0786 28C91.9067 34.4453 87.9614 42.4766 86.0317 50.4453C79.4146 77.7891 88.3052 84.6641 94.188 89.2266C97.1333 91.5078 99.9224 93.6641 98.3755 97.5859C98.1724 98.1016 97.5942 99.4844 88.8833 99.9297C87.9458 100 86.7661 100 85.3833 100ZM4.09424 19.0156C3.81805 19.2863 3.60469 19.6143 3.46924 19.9766C2.26611 22.5859 4.10205 38.8281 9.51611 49.3594C24.1489 77.7813 46.0942 89.1016 61.9927 93.6016C78.8442 98.375 92.8052 96.7969 95.6333 95.9453C95.8989 94.6875 95.0239 93.8359 92.2817 91.7109C86.1567 86.9687 75.8755 79.0312 83.0005 49.7266C85.0005 41.4063 89.063 33.2031 92.2739 26.6172C94.5317 22.0234 97.3286 16.3281 96.8755 15.0078C94.813 14.5078 90.0083 18.7109 86.1411 22.0859C81.5239 26.1094 76.7661 30.2734 72.313 31.6563C67.1645 33.2188 63.8442 27.0625 59.9927 19.8906C55.7427 12.0312 50.9614 3.125 43.4458 3.125C28.7427 3.125 23.438 15.8281 19.9067 24.2188C17.6958 29.4922 16.102 33.2969 12.7817 32.4922C11.6489 32.2188 11.0942 31.1406 9.33642 27.4687C8.28174 25.2578 5.46924 19.3984 4.09424 19.0156Z" fill="#B3BEC9"/>
<path d="M39.8437 46.25C38.2812 46.25 36.7187 45.3437 35.5234 43.75C34.217 41.8076 33.4621 39.6587 33.3125 37.4562C32.7578 32.1937 34.4453 29.3937 38.3203 29.1312C39.3024 29.0765 40.2853 29.2268 41.1728 29.5676C42.0603 29.9084 42.8219 30.4278 43.3828 31.075C44.7821 32.7168 45.5779 34.6396 45.6797 36.625C46.2266 41.8687 43.8437 46 40.125 46.2625L39.8437 46.25ZM38.7812 31.5875H38.5859C37.9141 31.6312 35.8594 31.7687 36.4297 37.2125C36.5504 39.0387 37.1606 40.8227 38.2187 42.4437C39 43.45 39.6641 43.7562 39.8594 43.7312C41.25 43.6375 42.9844 40.8875 42.5625 36.7937C42.3203 34.475 41.5234 33.2062 40.8984 32.5562C40.6665 32.2723 40.3537 32.0364 39.9856 31.868C39.6175 31.6996 39.2048 31.6035 38.7812 31.5875V31.5875Z" fill="#B3BEC9"/>
<path d="M31.25 26.825C29.6875 26.825 28.5938 25.4938 28.5938 23.5125C28.5938 21.5313 29.6563 20.2 31.25 20.2C32.8438 20.2 33.9063 21.5313 33.9063 23.5125C33.9063 25.4938 32.875 26.825 31.25 26.825Z" fill="#B3BEC9"/>
<path d="M47.7422 26.825C46.1797 26.825 45.0859 25.4938 45.0859 23.5125C45.0859 21.5313 46.1484 20.2 47.7422 20.2C49.3359 20.2 50.3984 21.5313 50.3984 23.5125C50.3984 25.4938 49.3281 26.825 47.7422 26.825Z" fill="#B3BEC9"/>
</svg>
